<?xml version="1.0" encoding="UTF-8"?>
<svg version="1.1" xmlns="http://www.w3.org/2000/svg" width="500" height="500">
<path d="M0 0 C0.99 0.8971875 0.99 0.8971875 2 1.8125 C2.33 -0.1675 2.66 -2.1475 3 -4.1875 C8.28 -4.1875 13.56 -4.1875 19 -4.1875 C19 15.9425 19 36.0725 19 56.8125 C13.72 56.8125 8.44 56.8125 3 56.8125 C2.505 53.8425 2.505 53.8425 2 50.8125 C1.113125 51.59625 0.22625 52.38 -0.6875 53.1875 C-6.4558598 58.28512029 -12.78680059 58.4047875 -20.1953125 58.1875 C-27.58856866 57.45880124 -32.76335779 54.54971686 -37.625 49 C-38.40875 47.948125 -39.1925 46.89625 -40 45.8125 C-42.96896279 48.48332039 -42.96896279 48.48332039 -45 56.8125 C-51.93 56.8125 -58.86 56.8125 -66 56.8125 C-68.65261481 49.57230068 -71.3035211 42.33147894 -73.95288086 35.09008789 C-74.85345874 32.62930613 -75.75449439 30.16869185 -76.65600586 27.70825195 C-77.95548418 24.16141522 -79.25328771 20.61396945 -80.55078125 17.06640625 C-81.15095818 15.42992882 -81.15095818 15.42992882 -81.76325989 13.76039124 C-83.93885202 7.80648033 -86.02853781 1.83717817 -88 -4.1875 C-82.06 -4.1875 -76.12 -4.1875 -70 -4.1875 C-65.33333333 9.8125 -60.66666667 23.8125 -56 37.8125 C-54.33621397 35.31682095 -53.49265971 33.65791028 -52.57958984 30.8918457 C-52.31947113 30.11126297 -52.05935242 29.33068024 -51.79135132 28.52644348 C-51.51731476 27.68884995 -51.2432782 26.85125641 -50.9609375 25.98828125 C-50.67521881 25.12688034 -50.38950012 24.26547943 -50.09512329 23.37797546 C-49.18418022 20.62836351 -48.2795207 17.87673056 -47.375 15.125 C-46.75822542 13.25962904 -46.14104283 11.39439294 -45.5234375 9.52929688 C-44.01088733 4.95858218 -42.50396901 0.3860451 -41 -4.1875 C-37.96226418 -4.34943224 -34.92450063 -4.51081112 -31.88671875 -4.671875 C-30.60516907 -4.74027588 -30.60516907 -4.74027588 -29.29772949 -4.81005859 C-8.13279853 -5.9301656 -8.13279853 -5.9301656 0 0 Z M-23.58203125 13.24609375 C-28.00133025 18.35312228 -28.2963328 22.60834084 -28.2109375 29.08984375 C-27.81114162 34.25017211 -25.78343049 37.30273393 -22 40.625 C-17.57825983 43.84918554 -14.4031362 44.26276135 -9 43.8125 C-3.65810947 41.86086985 -0.72114161 38.83614604 2 33.8125 C3.8541987 29.02248669 3.38016326 24.08716504 1.9375 19.25 C-1.09680511 13.86655545 -4.48627811 10.58946858 -10.4375 8.75 C-15.49276981 8.83868894 -19.75378209 9.77703834 -23.58203125 13.24609375 Z " fill="#31AD5B" transform="translate(304,235.1875)"/>
<path d="M0 0 C3 2.1875 3 2.1875 5 4 C5.33 2.02 5.66 0.04 6 -2 C11.28 -2 16.56 -2 22 -2 C22 18.13 22 38.26 22 59 C16.72 59 11.44 59 6 59 C5.505 56.03 5.505 56.03 5 53 C4.113125 53.78375 3.22625 54.5675 2.3125 55.375 C-3.71127341 60.69833464 -10.48798244 60.50468447 -18.109375 60.30859375 C-25.6838 59.70781104 -30.32223627 56.44373828 -35.4609375 51 C-42.14124866 42.31898651 -42.61730531 32.56277981 -42 22 C-40.60016534 13.31627992 -36.51899281 6.45135959 -29.5 1.125 C-20.44277889 -4.71012944 -9.56189905 -4.69707322 0 0 Z M-21.8125 16.625 C-25.02222995 20.91881093 -26.18438364 25.78815601 -25.87890625 31.109375 C-24.86910194 36.48111753 -22.06126473 40.4051006 -18 44 C-14.11217312 46.31565784 -10.43895473 46.77862316 -6 46 C-1.6419398 44.18996787 1.29529261 42.04569484 3.9375 38.125 C6.13069246 31.67443394 6.57165915 26.32628151 4 20 C0.59517786 14.69248313 -3.00223491 12.43042933 -9 11 C-14.41465951 11 -17.96437272 13.03341453 -21.8125 16.625 Z " fill="#000000" transform="translate(187,233)"/>
<path d="M0 0 C12.17690927 -1.92901533 12.17690927 -1.92901533 18 0 C23.09867672 4.14388282 26.07724539 10.23174421 29 16 C31.20957379 13.95612511 32.14201255 12.69179438 33.4453125 9.86328125 C35.38410263 5.76476909 36.77224921 3.20976889 40 0 C45.50763144 -1.63140115 51.39877345 -0.74470853 57 0 C55.37110183 4.66950808 52.88919626 8.60450222 50.25 12.75 C49.80479004 13.45576172 49.35958008 14.16152344 48.90087891 14.88867188 C45.67913664 19.97895453 42.38688548 25.01794174 39 30 C42.22722374 36.99509063 46.34977391 43.12829113 50.75 49.4375 C52.12175961 51.41400021 53.49166214 53.39179108 54.859375 55.37109375 C55.46233398 56.23661865 56.06529297 57.10214355 56.68652344 57.99389648 C58 60 58 60 58 61 C45.07291811 62.92901533 45.07291811 62.92901533 39 61 C33.83514719 56.90277093 30.88258399 50.80403428 28 45 C25.11493732 48.43071584 22.84826339 51.85441224 20.75 55.8125 C19.8425 57.524375 18.935 59.23625 18 61 C12.06 61 6.12 61 0 61 C1.67426285 56.81434288 3.20577539 54.04361302 5.765625 50.4375 C6.49007813 49.39335937 7.21453125 48.34921875 7.9609375 47.2734375 C9.10985982 45.63043937 10.25895326 43.98747437 11.42480469 42.35644531 C12.55492288 40.77009773 13.66066559 39.16647334 14.765625 37.5625 C15.43368164 36.61503906 16.10173828 35.66757812 16.79003906 34.69140625 C18.29453168 32.07905726 18.29453168 32.07905726 17.38549805 29.44750977 C16.00415841 27.00734592 14.60317283 24.62323849 13.06640625 22.27734375 C12.2165918 20.97506836 12.2165918 20.97506836 11.34960938 19.64648438 C10.75986328 18.75251953 10.17011719 17.85855469 9.5625 16.9375 C8.97662109 16.03966797 8.39074219 15.14183594 7.78710938 14.21679688 C4.69944409 9.44973739 4.69944409 9.44973739 1.30834961 4.90063477 C0 3 0 3 0 0 Z " fill="#30AD5A" transform="translate(392,231)"/>
<path d="M0 0 C18.48 0 36.96 0 56 0 C56 4.62 56 9.24 56 14 C49.4 14 42.8 14 36 14 C36 34.79 36 55.58 36 77 C30.72 77 25.44 77 20 77 C20 56.21 20 35.42 20 14 C13.4 14 6.8 14 0 14 C0 9.38 0 4.76 0 0 Z " fill="#000000" transform="translate(38,215)"/>
<path d="M0 0 C5.94 0 11.88 0 18 0 C22.66666667 14 27.33333333 28 32 42 C33.66378603 39.50432095 34.50734029 37.84541028 35.42041016 35.0793457 C35.68052887 34.29876297 35.94064758 33.51818024 36.20864868 32.71394348 C36.48268524 31.87634995 36.7567218 31.03875641 37.0390625 30.17578125 C37.32478119 29.31438034 37.61049988 28.45297943 37.90487671 27.56547546 C38.81581978 24.81586351 39.7204793 22.06423056 40.625 19.3125 C41.24177458 17.44712904 41.85895717 15.58189294 42.4765625 13.71679688 C43.98911267 9.14608218 45.49603099 4.5735451 47 0 C52.61 0 58.22 0 64 0 C62.32949879 1.11366747 60.64472804 2.20890523 58.9140625 3.2265625 C53.27921543 6.66901173 49.86219606 10.03421786 47 16 C46.63261719 16.73347656 46.26523437 17.46695313 45.88671875 18.22265625 C44.69833305 21.94486873 44.7094642 25.51058717 44.75 29.375 C44.74226563 30.10460937 44.73453125 30.83421875 44.7265625 31.5859375 C44.74373053 36.39298607 45.58127317 40.37346913 47 45 C46.67165747 50.91016563 44.94584404 55.16246789 43 61 C36.07 61 29.14 61 22 61 C19.34738519 53.75980068 16.6964789 46.51897894 14.04711914 39.27758789 C13.14654126 36.81680613 12.24550561 34.35619185 11.34399414 31.89575195 C10.04451582 28.34891522 8.74671229 24.80146945 7.44921875 21.25390625 C6.84904182 19.61742882 6.84904182 19.61742882 6.23674011 17.94789124 C4.06114798 11.99398033 1.97146219 6.02467817 0 0 Z " fill="#010201" transform="translate(216,231)"/>
<path d="M0 0 C5.61 0 11.22 0 17 0 C17 26.73 17 53.46 17 81 C11.39 81 5.78 81 0 81 C0 54.27 0 27.54 0 0 Z " fill="#2FAE59" transform="translate(337,211)"/>
<path d="M0 0 C0 5.61 0 11.22 0 17 C-4.1015625 17.73242188 -4.1015625 17.73242188 -8.203125 18.46484375 C-9.58757812 18.72974609 -9.58757812 18.72974609 -11 19 C-11.73734375 19.06316406 -12.4746875 19.12632812 -13.234375 19.19140625 C-15.28809159 19.89316215 -15.28809159 19.89316215 -16.08447266 22.52172852 C-17.14038704 26.53335842 -17.35116504 30.34178422 -17.4140625 34.4609375 C-17.43342865 35.25150543 -17.4527948 36.04207336 -17.4727478 36.8565979 C-17.53216053 39.36262483 -17.57877427 41.86869865 -17.625 44.375 C-17.66321513 46.08205043 -17.70226889 47.78908231 -17.7421875 49.49609375 C-17.83939725 53.66396173 -17.91926744 57.8316505 -18 62 C-23.28 62 -28.56 62 -34 62 C-34 41.87 -34 21.74 -34 1 C-28.72 1 -23.44 1 -18 1 C-17.67 2.98 -17.34 4.96 -17 7 C-15.700625 5.824375 -15.700625 5.824375 -14.375 4.625 C-9.78078273 0.80909718 -5.98188799 0 0 0 Z " fill="#000000" transform="translate(139,230)"/>
<path d="M0 0 C5.28 0 10.56 0 16 0 C16 20.13 16 40.26 16 61 C10.72 61 5.44 61 0 61 C0 40.87 0 20.74 0 0 Z " fill="#31AC5A" transform="translate(368,231)"/>
<path d="M0 0 C3.00359919 1.53375278 4.4854983 2.64907375 5.69921875 5.8359375 C6.56134475 9.96465102 6.18450109 11.67265936 4.0625 15.4375 C0.81970451 18.15085949 -0.87807911 19.00408703 -5 19.24609375 C-8.3763369 18.83064605 -10.47055744 17.15928024 -13 15 C-14.55024464 11.89951072 -14.28992015 9.42105782 -14 6 C-10.23870187 0.2326762 -6.77253979 -0.89522078 0 0 Z " fill="#35AA5D" transform="translate(380,206)"/>
<path d="M0 0 C12.53859964 -1.4467615 12.53859964 -1.4467615 18 0 C21.87101459 3.474769 23.97539028 7.24287507 26 12 C24.68 12.33 23.36 12.66 22 13 C20 10 20 10 19 8 C18.360625 8.804375 17.72125 9.60875 17.0625 10.4375 C15 13 15 13 14 14 C13.09207593 15.75897091 13.09207593 15.75897091 13 18 C14.64168157 20.89040744 16.5681266 23.46801901 18.53125 26.1484375 C20 29 20 29 19.96484375 31.9921875 C18.84243266 35.49120183 17.29003192 37.83366526 15.0625 40.75 C14.35222656 41.69359375 13.64195312 42.6371875 12.91015625 43.609375 C11 46 11 46 9 48 C9.75752314 42.82152212 13.44779881 39.05926941 16.48046875 34.97265625 C18.35023666 32.16208888 18.35023666 32.16208888 17.27832031 29.609375 C16.01579932 27.0322504 14.6385473 24.67723808 13.06640625 22.27734375 C12.2165918 20.97506836 12.2165918 20.97506836 11.34960938 19.64648438 C10.75986328 18.75251953 10.17011719 17.85855469 9.5625 16.9375 C8.97662109 16.03966797 8.39074219 15.14183594 7.78710938 14.21679688 C4.69944409 9.44973739 4.69944409 9.44973739 1.30834961 4.90063477 C0 3 0 3 0 0 Z " fill="#39A75F" transform="translate(392,231)"/>
<path d="M0 0 C5.61 0 11.22 0 17 0 C17 26.73 17 53.46 17 81 C11.39 81 5.78 81 0 81 C0 54.27 0 27.54 0 0 Z M4 1 C4 1.66 4 2.32 4 3 C3.34 3 2.68 3 2 3 C2 28.41 2 53.82 2 80 C6.62 80 11.24 80 16 80 C16.02312392 69.84733849 16.04091534 59.6946832 16.05181217 49.54200077 C16.05704089 44.82820267 16.06413834 40.11442253 16.07543945 35.40063477 C16.08626873 30.85544596 16.09227692 26.31027448 16.09487724 21.76507378 C16.09673142 20.02705042 16.10035189 18.28902806 16.10573006 16.55101204 C16.11294103 14.12521405 16.11399092 11.69948854 16.11352539 9.27368164 C16.11712067 8.54791931 16.12071594 7.82215698 16.12442017 7.07440186 C16.408186 3.75400112 16.408186 3.75400112 15 1 C13.14712498 0.92773498 11.29166122 0.9161878 9.4375 0.9375 C8.42558594 0.94652344 7.41367187 0.95554688 6.37109375 0.96484375 C5.58863281 0.97644531 4.80617188 0.98804688 4 1 Z " fill="#3E975E" transform="translate(337,211)"/>
<path d="M0 0 C5.61 0 11.22 0 17 0 C15.32949879 1.11366747 13.64472804 2.20890523 11.9140625 3.2265625 C6.89286615 6.29411932 3.7817115 9.07038303 0.97265625 14.265625 C0 16 0 16 -2 18 C-4 15 -4 15 -3.828125 12.94921875 C-3.63734375 12.20285156 -3.4465625 11.45648438 -3.25 10.6875 C-3.06953125 9.94886719 -2.8890625 9.21023437 -2.703125 8.44921875 C-1.88717509 5.60699322 -0.93509466 2.80528398 0 0 Z " fill="#030204" transform="translate(263,231)"/>
<path d="M0 0 C5.7097955 0.41778991 8.60957142 2.57546571 13 6 C13.33 4.02 13.66 2.04 14 0 C19.28 0 24.56 0 30 0 C29.67 1.32 29.34 2.64 29 4 C29 3.34 29 2.68 29 2 C24.71 2 20.42 2 16 2 C16.33 3.32 16.66 4.64 17 6 C15.5625 7.75 15.5625 7.75 14 9 C12.02 8.01 10.04 7.02 8 6 C7.67 6.99 7.34 7.98 7 9 C6.34 8.67 5.68 8.34 5 8 C5.66 7.01 6.32 6.02 7 5 C6.34 5 5.68 5 5 5 C4.34 4.01 3.68 3.02 3 2 C2.01 1.34 1.02 0.68 0 0 Z " fill="#4AA269" transform="translate(293,231)"/>
<path d="M0 0 C0.66 0 1.32 0 2 0 C2.28875 0.9075 2.5775 1.815 2.875 2.75 C3.77190642 5.34106299 4.75062577 7.57933743 6 10 C6.67966676 11.66140763 7.34938905 13.32700041 8 15 C5.03 15 2.06 15 -1 15 C-1 14.34 -1 13.68 -1 13 C-1.66 12.67 -2.32 12.34 -3 12 C-2.68950274 10.56206608 -2.3765224 9.1246682 -2.0625 7.6875 C-1.88847656 6.88699219 -1.71445312 6.08648437 -1.53515625 5.26171875 C-1 3 -1 3 0 0 Z " fill="#2EAE59" transform="translate(372,208)"/>
<path d="M0 0 C5.61 0 11.22 0 17 0 C15.32949879 1.11366747 13.64472804 2.20890523 11.9140625 3.2265625 C6.89286615 6.29411932 3.7817115 9.07038303 0.97265625 14.265625 C0 16 0 16 -2 18 C-1.43183168 14.09903945 -0.30753577 11.46130366 1.875 8.1875 C2.38804687 7.39730469 2.90109375 6.60710937 3.4296875 5.79296875 C4.20699219 4.90544922 4.20699219 4.90544922 5 4 C5.99 4 6.98 4 8 4 C8 3.34 8 2.68 8 2 C5.36 2 2.72 2 0 2 C0 1.34 0 0.68 0 0 Z " fill="#07190B" transform="translate(263,231)"/>
<path d="M0 0 C2.95064148 -0.2208564 5.68368231 -0.28060989 8.625 -0.1875 C9.42679687 -0.17396484 10.22859375 -0.16042969 11.0546875 -0.14648438 C13.03674378 -0.11109051 15.01845551 -0.05728234 17 0 C15.61702141 3.57770548 14.04383021 6.74845193 12 10 C11.01 9.67 10.02 9.34 9 9 C9.66 9 10.32 9 11 9 C11.12375 8.195625 11.2475 7.39125 11.375 6.5625 C11.58125 5.716875 11.7875 4.87125 12 4 C12.66 3.67 13.32 3.34 14 3 C7.07 2.505 7.07 2.505 0 2 C-0.33 2.99 -0.66 3.98 -1 5 C-1.33 4.34 -1.66 3.68 -2 3 C-1.34 2.01 -0.68 1.02 0 0 Z " fill="#46A167" transform="translate(432,231)"/>
<path d="M0 0 C0.70576172 0.52400391 0.70576172 0.52400391 1.42578125 1.05859375 C2.35970703 1.74115234 2.35970703 1.74115234 3.3125 2.4375 C3.92738281 2.88996094 4.54226563 3.34242188 5.17578125 3.80859375 C9.0341922 6.32854095 12.50865819 6.37427848 17 6 C19.53604223 4.87740585 21.65552414 3.51701379 24 2 C24.66 1.67 25.32 1.34 26 1 C25.9375 2.8125 25.9375 2.8125 25 5 C19.40803065 8.40380743 13.4434463 9.1874351 7 8 C3.96265818 6.35238533 1.48434669 4.39180655 -1 2 C-0.67 1.34 -0.34 0.68 0 0 Z " fill="#45A266" transform="translate(278,272)"/>
<path d="M0 0 C0.61488281 0.19207031 1.22976563 0.38414062 1.86328125 0.58203125 C-3.13899665 10.17656428 -3.13899665 10.17656428 -7.13671875 13.58203125 C-6.7921317 4.55385045 -6.7921317 4.55385045 -4.32421875 0.89453125 C-2.13671875 -0.41796875 -2.13671875 -0.41796875 0 0 Z " fill="#3AA560" transform="translate(440.13671875,242.41796875)"/>
<path d="M0 0 C0.66 0.33 1.32 0.66 2 1 C1.525625 1.845625 1.05125 2.69125 0.5625 3.5625 C-1.05783445 7.12723579 -1.54540995 10.13598457 -2 14 C-2.33 14.33 -2.66 14.66 -3 15 C-3.23363881 16.84891946 -3.41303635 18.70488031 -3.5625 20.5625 C-3.64628906 21.57441406 -3.73007812 22.58632813 -3.81640625 23.62890625 C-3.87699219 24.41136719 -3.93757813 25.19382812 -4 26 C-4.33 26 -4.66 26 -5 26 C-5.54992842 16.15017092 -5.73261543 8.51702863 0 0 Z " fill="#3A9A5C" transform="translate(265,242)"/>
<path d="M0 0 C4.1666604 0.47348414 6.92884715 1.04696841 10 4 C10 4.66 10 5.32 10 6 C9.34 6 8.68 6 8 6 C7.67 6.99 7.34 7.98 7 9 C6.34 8.67 5.68 8.34 5 8 C5.66 7.01 6.32 6.02 7 5 C6.34 5 5.68 5 5 5 C4.34 4.01 3.68 3.02 3 2 C2.01 1.34 1.02 0.68 0 0 Z " fill="#3FA562" transform="translate(293,231)"/>
<path d="M0 0 C0.66 0 1.32 0 2 0 C1.67 1.32 1.34 2.64 1 4 C0.34 4 -0.32 4 -1 4 C-0.67 5.32 -0.34 6.64 0 8 C-1.32 8.33 -2.64 8.66 -4 9 C-4 9.66 -4 10.32 -4 11 C-4.66 11 -5.32 11 -6 11 C-4.54997977 6.89160936 -2.6020866 3.49655387 0 0 Z " fill="#3D9D60" transform="translate(398,281)"/>
<path d="M0 0 C3.33557632 2.9905167 5.15083921 5.93184627 7 10 C5.68 10 4.36 10 3 10 C0.70366176 6.55549263 0.45983515 4.06187717 0 0 Z " fill="#42A061" transform="translate(411,234)"/>
<path d="M0 0 C7.09561034 -0.48105833 7.09561034 -0.48105833 10.9375 1.5625 C13.56356875 4.66603579 13.76928323 7.0009094 14 11 C12 8 12 8 11.625 5.9375 C11.17096765 3.88095027 11.17096765 3.88095027 9.375 2.8125 C6.28578263 1.75566248 3.23601863 1.37338677 0 1 C0 0.67 0 0.34 0 0 Z " fill="#479D65" transform="translate(372,206)"/>
<path d="M0 0 C2.50037734 2.17424117 3.43628586 3.73045798 4 7 C4.66 7 5.32 7 6 7 C6.66 8.65 7.32 10.3 8 12 C4.17946076 10.72648692 3.76978625 9.37362475 1.8125 5.9375 C1.28269531 5.01839844 0.75289063 4.09929687 0.20703125 3.15234375 C-0.39044922 2.08693359 -0.39044922 2.08693359 -1 1 C-0.67 0.67 -0.34 0.34 0 0 Z " fill="#3EA062" transform="translate(421,274)"/>
<path d="M0 0 C1.98 0.495 1.98 0.495 4 1 C4.33 3.64 4.66 6.28 5 9 C4.34 9 3.68 9 3 9 C2.67 7.02 2.34 5.04 2 3 C1.01 3.66 0.02 4.32 -1 5 C-0.67 3.35 -0.34 1.7 0 0 Z " fill="#42A365" transform="translate(304,283)"/>
<path d="M0 0 C3.08089673 2.77280706 4.68775452 5.06326356 6 9 C3.5067466 8.00269864 2.22532561 7.34925469 0.75 5.0625 C0 3 0 3 0 0 Z " fill="#3CA363" transform="translate(436,272)"/>
<path d="M0 0 C0.33 0.66 0.66 1.32 1 2 C-0.59617578 5.83082186 -1.49984971 7.66656647 -5 10 C-3.66511872 6.40608886 -2.03977277 3.24509304 0 0 Z " fill="#429E61" transform="translate(429,236)"/>
</svg>
